<?xml version="1.0" standalone="no"?>
<!DOCTYPE svg PUBLIC "-//W3C//DTD SVG 20010904//EN"
 "http://www.w3.org/TR/2001/REC-SVG-20010904/DTD/svg10.dtd">
<svg version="1.0" xmlns="http://www.w3.org/2000/svg"
 width="260.000000pt" height="260.000000pt" viewBox="0 0 260.000000 260.000000"
 preserveAspectRatio="xMidYMid meet">
<metadata>
Created by potrace 1.11, written by Peter Selinger 2001-2013
</metadata>
<g transform="translate(0.000000,260.000000) scale(0.100000,-0.100000)"
fill="#000000" stroke="none">
<path d="M1227 2585 c-1 -2 -33 -5 -72 -9 -345 -32 -688 -233 -899 -526 -239
-333 -305 -760 -177 -1157 69 -214 235 -455 406 -589 28 -21 52 -42 55 -45 14
-15 164 -102 223 -129 69 -31 201 -77 246 -85 14 -3 37 -7 51 -10 86 -19 282
-25 395 -13 452 52 859 361 1034 786 228 553 40 1199 -449 1544 -164 115 -389
202 -580 224 -55 6 -228 12 -233 9z m270 -151 c448 -79 810 -416 922 -859 22
-86 24 -105 27 -260 3 -179 -10 -264 -65 -413 -163 -447 -595 -752 -1066 -754
-113 0 -153 4 -266 27 -363 76 -692 358 -824 708 -85 226 -99 448 -44 685 99
429 453 772 889 860 116 24 310 27 427 6z"/>
<path d="M1248 2255 c-2 -1 -25 -5 -53 -8 -176 -18 -425 -167 -425 -253 0 -74
81 -104 138 -51 126 116 320 172 505 144 94 -15 205 -68 277 -134 21 -18 52
-35 69 -38 57 -7 103 53 81 109 -23 61 -222 181 -351 210 -57 14 -232 29 -241
21z"/>
<path d="M1065 1841 c-103 -26 -239 -137 -283 -233 -45 -97 -55 -200 -22 -218
20 -11 59 1 61 18 0 4 3 27 5 52 6 63 59 163 111 211 55 50 130 86 201 95 58
7 79 31 60 67 -9 18 -74 22 -133 8z"/>
<path d="M1402 1838 c-16 -16 -15 -43 2 -57 7 -6 35 -13 62 -16 167 -19 308
-177 314 -352 0 -22 38 -35 61 -22 20 10 21 17 16 78 -12 122 -90 245 -202
316 -86 55 -222 84 -253 53z"/>
<path d="M1972 1842 c-30 -5 -62 -56 -56 -91 3 -14 18 -39 34 -56 90 -94 144
-239 144 -390 -1 -150 -45 -277 -132 -376 -63 -71 -62 -127 3 -155 31 -13 39
-13 65 1 68 35 174 218 206 352 17 74 23 216 11 300 -15 115 -81 262 -159 354
-41 49 -76 68 -116 61z"/>
<path d="M592 1832 c-38 -6 -122 -104 -171 -200 -26 -51 -59 -155 -68 -211 -9
-58 -9 -192 -1 -251 17 -120 89 -272 171 -364 37 -43 49 -50 81 -50 42 0 73
25 79 64 5 30 -6 54 -44 95 -38 39 -93 145 -114 217 -51 178 -8 387 108 530
26 32 49 68 51 80 8 51 -41 98 -92 90z"/>
<path d="M1090 1613 c-85 -42 -141 -136 -131 -220 0 -7 9 -13 19 -13 14 0 23
14 35 58 24 84 82 137 167 151 26 5 35 11 35 26 0 30 -63 29 -125 -2z"/>
<path d="M1386 1632 c-11 -19 6 -42 31 -42 38 0 115 -46 142 -85 13 -19 28
-55 33 -80 7 -34 14 -45 29 -45 10 0 20 6 20 13 9 78 -39 168 -116 212 -46 28
-129 43 -139 27z"/>
<path d="M1231 1499 c-95 -38 -150 -152 -120 -249 55 -173 292 -192 375 -30
22 44 23 134 1 175 -21 42 -65 84 -105 101 -39 16 -115 18 -151 3z"/>
<path d="M755 1206 c-15 -11 -17 -22 -12 -67 9 -79 13 -94 43 -155 53 -109
195 -216 304 -230 25 -3 51 -7 59 -10 20 -7 61 23 61 45 0 27 -18 38 -78 44
-152 17 -286 155 -307 315 -5 36 -13 55 -25 62 -23 13 -23 13 -45 -4z"/>
<path d="M959 1208 c-10 -89 46 -183 135 -226 46 -23 121 -24 121 -3 0 16 -16
25 -70 40 -80 21 -133 92 -144 194 -2 12 -41 8 -42 -5z"/>
<path d="M1599 1213 c-11 -107 -76 -186 -162 -200 -61 -9 -77 -53 -20 -53 76
0 165 57 199 127 19 39 20 44 24 78 5 41 0 55 -20 55 -11 0 -20 -3 -21 -7z"/>
<path d="M1792 1201 c-8 -4 -15 -30 -18 -57 -5 -64 -53 -160 -105 -212 -52
-51 -132 -90 -202 -98 -73 -8 -101 -48 -54 -78 17 -11 34 -12 82 -5 159 26
292 140 346 297 24 69 25 147 3 156 -21 8 -36 7 -52 -3z"/>
<path d="M802 674 c-56 -23 -63 -86 -14 -137 43 -45 154 -115 226 -142 96 -36
149 -47 251 -50 212 -7 412 66 538 197 33 36 37 88 7 118 -37 37 -81 30 -140
-22 -161 -142 -423 -174 -636 -77 -39 17 -132 82 -144 100 -14 20 -57 27 -88
13z"/>
</g>
</svg>
