<svg xmlns="http://www.w3.org/2000/svg" viewBox="0 0 187.04 187.03"><defs><style>.cls-1{fill:#d456b1;}</style></defs><title>icon-plugins</title><g id="Layer_2" data-name="Layer 2"><g id="Layer_1-2" data-name="Layer 1"><polygon class="cls-1" points="187.04 55.11 169.38 37.45 134.51 72.33 114.71 52.52 149.58 17.65 131.93 0 97.06 34.87 74.67 12.48 57.77 29.38 157.66 129.26 174.55 112.36 152.17 89.98 187.04 55.11"/><path class="cls-1" d="M30.35,131.71l-25.8,25.8a15.65,15.65,0,0,0,0,22.07l2.9,2.9a15.66,15.66,0,0,0,22.07,0l25.8-25.8c29.8,14.66,64.44-6.55,86.85-25.24h0L55.6,44.86C36.91,67.28,15.7,101.91,30.35,131.71Z"/></g></g></svg>