<svg xmlns="http://www.w3.org/2000/svg" viewBox="0 0 106 106"><defs><style>.cls-1{fill:#35344a;}.cls-2{fill:#fff;}</style></defs><title>icon-mic</title><g id="Layer_2" data-name="Layer 2"><g id="Layer_1-2" data-name="Layer 1"><circle class="cls-1" cx="53" cy="53" r="53"/><path class="cls-2" d="M75,45h-5.4c0,9-8.08,16.21-16.85,16.21S35.88,54,35.88,45h-5.4C30.47,56,39,64.71,49,66.26V84H39v5H65V84H56V66.26C67,64.71,75,56,75,45Z"/><path class="cls-2" d="M52.63,54.44a9.54,9.54,0,0,0,9.55-9.54l.06-19.08a9.62,9.62,0,0,0-19.24,0V44.9A9.61,9.61,0,0,0,52.63,54.44Z"/></g></g></svg>