<svg xmlns="http://www.w3.org/2000/svg" xmlns:xlink="http://www.w3.org/1999/xlink" viewBox="0 0 179.04 202.75"><defs><style>.cls-1,.cls-2{fill:url(#linear-gradient);}.cls-1{clip-rule:evenodd;}.cls-2{fill-rule:evenodd;}.cls-3{clip-path:url(#clip-path);}.cls-4{fill:none;}.cls-5{fill:url(#linear-gradient-3);}.cls-6{fill:url(#linear-gradient-4);}.cls-7{fill:url(#linear-gradient-5);}.cls-8{fill:url(#linear-gradient-6);}.cls-9{fill:url(#linear-gradient-7);}</style><linearGradient id="linear-gradient" x1="120.29" y1="34.96" x2="49.47" y2="179.43" gradientUnits="userSpaceOnUse"><stop offset="0" stop-color="#41873f"/><stop offset="0.33" stop-color="#418b3d"/><stop offset="0.64" stop-color="#409637"/><stop offset="0.93" stop-color="#3fa92d"/><stop offset="1" stop-color="#3fae2a"/></linearGradient><clipPath id="clip-path"><path id="_Clipping_Path_" data-name="&lt;Clipping Path&gt;" class="cls-1" d="M93.16,1.27a9.47,9.47,0,0,0-9.47,0L5.3,46.51a9.46,9.46,0,0,0-4.74,8.2v90.54a9.47,9.47,0,0,0,4.73,8.2l78.39,45.27a9.47,9.47,0,0,0,9.47,0l78.37-45.27a9.48,9.48,0,0,0,4.73-8.2V54.7a9.46,9.46,0,0,0-4.74-8.2Z"/></clipPath><linearGradient id="linear-gradient-3" x1="76.49" y1="110.57" x2="275.2" y2="-36.26" gradientUnits="userSpaceOnUse"><stop offset="0.14" stop-color="#41873f"/><stop offset="0.4" stop-color="#54a044"/><stop offset="0.71" stop-color="#66b748"/><stop offset="0.91" stop-color="#6cc04a"/></linearGradient><linearGradient id="linear-gradient-4" x1="-2.2" y1="99.96" x2="179.04" y2="99.96" gradientUnits="userSpaceOnUse"><stop offset="0.09" stop-color="#6cc04a"/><stop offset="0.29" stop-color="#66b748"/><stop offset="0.6" stop-color="#54a044"/><stop offset="0.86" stop-color="#41873f"/></linearGradient><linearGradient id="linear-gradient-5" x1="-2.2" y1="151.7" x2="179.04" y2="151.7" xlink:href="#linear-gradient-4"/><linearGradient id="linear-gradient-6" x1="-1.66" y1="175.09" x2="178.52" y2="175.09" xlink:href="#linear-gradient-4"/><linearGradient id="linear-gradient-7" x1="205.19" y1="30.67" x2="93.41" y2="258.71" xlink:href="#linear-gradient"/></defs><title>logo-node</title><g id="Layer_2" data-name="Layer 2"><g id="Layer_1-2" data-name="Layer 1"><path id="_Clipping_Path_2" data-name="&lt;Clipping Path&gt;" class="cls-2" d="M93.16,1.27a9.47,9.47,0,0,0-9.47,0L5.3,46.51a9.46,9.46,0,0,0-4.74,8.2v90.54a9.47,9.47,0,0,0,4.73,8.2l78.39,45.27a9.47,9.47,0,0,0,9.47,0l78.37-45.27a9.48,9.48,0,0,0,4.73-8.2V54.7a9.46,9.46,0,0,0-4.74-8.2Z"/><g class="cls-3"><path class="cls-4" d="M83.53,1.27,5,46.51a9.74,9.74,0,0,0-5,8.2v90.54a9.11,9.11,0,0,0,2.4,6L90.64.29A9.67,9.67,0,0,0,83.53,1.27Z"/><path class="cls-4" d="M91.06,199.64a9.43,9.43,0,0,0,2.21-.92l78.64-45.27a9.83,9.83,0,0,0,5.1-8.2V54.7a9.53,9.53,0,0,0-3-6.58Z"/><path class="cls-5" d="M171.69,46.51,93.08,1.27a9.41,9.41,0,0,0-2.46-1l-88.26,151A10.79,10.79,0,0,0,5,153.45l78.74,45.27a9.56,9.56,0,0,0,7.31.92L173.8,48.13A10.31,10.31,0,0,0,171.69,46.51Z"/><path class="cls-4" d="M177,145.25V54.7a9.86,9.86,0,0,0-5.14-8.2L93.16,1.27A9.67,9.67,0,0,0,90.24.21l86.32,147.22A8.88,8.88,0,0,0,177,145.25Z"/><path class="cls-4" d="M5,46.51a9.74,9.74,0,0,0-5,8.2v90.54a9.78,9.78,0,0,0,5,8.2l78.72,45.27a9.52,9.52,0,0,0,6,1.18L5.48,46.23Z"/><path class="cls-6" d="M171.73,153.45a9.91,9.91,0,0,0,4.63-6L90.19.21a9.6,9.6,0,0,0-6.66,1.06l-78.08,45L89.8,199.9a9.48,9.48,0,0,0,3.46-1.18Z"/><polygon class="cls-7" points="179.04 151.99 178.52 151.11 178.52 152.29 179.04 151.99"/><path class="cls-8" d="M171.73,153.45,93.26,198.72a9.48,9.48,0,0,1-3.46,1.18l1.3,2.85L178,152.29v-1.19l-1.89-3.68A9.52,9.52,0,0,1,171.73,153.45Z"/><path class="cls-9" d="M171.73,153.45,93.26,198.72a9.48,9.48,0,0,1-3.46,1.18l1.3,2.85L178,152.29v-1.19l-1.89-3.68A9.52,9.52,0,0,1,171.73,153.45Z"/></g></g></g></svg>