<?xml version="1.0" encoding="UTF-8"?>
<svg width="118px" height="118px" viewBox="0 0 118 118" version="1.1" xmlns="http://www.w3.org/2000/svg" xmlns:xlink="http://www.w3.org/1999/xlink">
    <!-- Generator: Sketch 48.2 (47327) - http://www.bohemiancoding.com/sketch -->
    <title>Slice 1</title>
    <desc>Created with Sketch.</desc>
    <defs></defs>
    <g id="Page-1" stroke="none" stroke-width="1" fill="none" fill-rule="evenodd">
        <path d="M58.67,117.34 C26.2674537,117.34 3.96816746e-15,91.0725463 0,58.67 C-3.96816746e-15,26.2674537 26.2674537,5.95225119e-15 58.67,0 C91.0725463,-5.95225119e-15 117.34,26.2674537 117.34,58.67 C117.34,74.2302515 111.158714,89.1531955 100.155955,100.155955 C89.1531955,111.158714 74.2302515,117.34 58.67,117.34 Z M58.67,6 C29.5603727,6.00000052 5.96184157,29.5970401 5.96000105,58.7066673 C5.95816054,87.8162945 29.5537075,111.416318 58.6633346,111.42 C87.7729617,111.423681 111.374477,87.8296268 111.38,58.72 C111.382652,44.7387063 105.830464,31.3291424 95.9451344,21.4419369 C86.0598044,11.5547315 72.651294,5.99999975 58.67,6 Z" id="Shape" fill="#EA495E" fill-rule="nonzero"></path>
        <circle id="Oval" fill="#EA495E" fill-rule="nonzero" transform="translate(58.843920, 57.207452) rotate(-45.000000) translate(-58.843920, -57.207452) " cx="58.8439198" cy="57.2074517" r="9.18"></circle>
        <path d="M90.38,82 C88.937297,81.9948375 87.6386708,81.1241927 87.0859539,79.7915552 C86.5332371,78.4589177 86.8344503,76.9247329 87.85,75.9 C92.6266875,70.9358621 95.2533148,64.288447 95.16,57.4 C95.248032,50.5184472 92.6217885,43.8791888 87.85,38.92 C86.5320227,37.5098932 86.5691781,35.3088174 87.9339978,33.9439978 C89.2988174,32.5791781 91.4998932,32.5420227 92.91,33.86 C99.0211374,40.1633083 102.402056,48.620993 102.32,57.4 C102.403138,66.1792101 99.0220618,74.6372909 92.91,80.94 C92.2421152,81.6170984 91.3310683,81.9988018 90.38,82 Z" id="Shape" fill="#EA495E" fill-rule="nonzero"></path>
        <path d="M58.39,101.31 C49.6097671,101.40886 41.1470975,98.0295446 34.85,91.91 C33.8945322,91.0169578 33.5020809,89.6739619 33.8263383,88.4069574 C34.1505956,87.139953 35.139953,86.1505956 36.4069574,85.8263383 C37.6739619,85.5020809 39.0169578,85.8945322 39.91,86.85 C49.58,96.52 67.19,96.52 76.91,86.85 C77.8030422,85.8945322 79.1460381,85.5020809 80.4130426,85.8263383 C81.680047,86.1505956 82.6694044,87.139953 82.9936617,88.4069574 C83.3179191,89.6739619 82.9254678,91.0169578 81.97,91.91 C75.6630407,98.0393763 67.1840324,101.419473 58.39,101.31 Z" id="Shape" fill="#EA495E" fill-rule="nonzero"></path>
        <path d="M80,29.54 C79.0713393,29.5441996 78.1777983,29.1853478 77.51,28.54 C67.84,18.87 50.23,18.87 40.57,28.54 C39.6769578,29.4954678 38.3339619,29.8879191 37.0669574,29.5636617 C35.799953,29.2394044 34.8105956,28.250047 34.4863383,26.9830426 C34.1620809,25.7160381 34.5545322,24.3730422 35.51,23.48 C48,10.9 70,10.9 82.52,23.44 C83.5343045,24.4634366 83.8361764,25.9952264 83.2860113,27.3269752 C82.7358463,28.6587239 81.440886,29.5308388 80,29.54 Z" id="Shape" fill="#EA495E" fill-rule="nonzero"></path>
        <path d="M27,82.53 C26.0503779,82.5314449 25.1395366,82.1534278 24.47,81.48 C18.3369263,75.1863531 14.9339823,66.727504 15,57.94 C14.919974,49.1672871 18.3009801,40.7165682 24.41,34.42 C25.8201068,33.1020227 28.0211826,33.1391781 29.3860022,34.5039978 C30.7508219,35.8688174 30.7879773,38.0698932 29.47,39.48 C24.6978824,44.4349275 22.0713604,51.0712969 22.16,57.95 C22.0800034,64.8357895 24.7172539,71.4756245 29.5,76.43 C30.5118729,77.4508378 30.81509,78.9778788 30.2700103,80.3078731 C29.7249307,81.6378674 28.4372558,82.5129035 27,82.53 Z" id="Shape" fill="#EA495E" fill-rule="nonzero"></path>
        <path d="M63.52,82.31 C62.9777282,81.7684654 62.8184444,80.9519798 63.1174102,80.2463327 C63.4163759,79.5406855 64.1137408,79.0871414 64.88,79.1 C73.06,79.1 80.52,71.65 80.52,63.46 C80.52,62.4217047 81.3617047,61.58 82.4,61.58 C83.4382953,61.58 84.28,62.4217047 84.28,63.46 C84.28,73.8 75.22,82.86 64.88,82.86 C64.3708911,82.8684022 63.8801472,82.6699396 63.52,82.31 Z" id="Shape" fill="#EA495E" fill-rule="nonzero"></path>
        <path d="M38.92,77 C35.2756284,73.43536 33.1843008,68.5771557 33.1,63.48 C33.1,62.8083407 33.4583259,62.1877018 34.04,61.8518721 C34.621674,61.5160425 35.338326,61.5160425 35.92,61.8518721 C36.5016741,62.1877018 36.86,62.8083407 36.86,63.48 C36.86,71.66 44.31,79.12 52.5,79.12 C53.5382953,79.0564873 54.4314873,79.8467047 54.495,80.885 C54.5585127,81.9232953 53.7682953,82.8164873 52.73,82.88 L52.5,82.88 C47.3732899,82.795632 42.48942,80.6809666 38.92,77 Z" id="Shape" fill="#EA495E" fill-rule="nonzero"></path>
        <path d="M81,53.21 C80.6400604,52.8498528 80.4415978,52.3591089 80.45,51.85 C80.45,43.67 73,36.21 64.81,36.21 C64.1383407,36.2510856 63.495783,35.9307242 63.1243722,35.3695929 C62.7529614,34.8084617 62.7091236,34.0918097 63.0093722,33.4895929 C63.3096207,32.8873761 63.9083407,32.4910855 64.58,32.45 L64.81,32.45 C75.4341208,32.7086575 83.9822785,41.2656185 84.23,51.89 C84.2347548,52.6578632 83.7720485,53.3514402 83.0612364,53.6419269 C82.3504242,53.9324136 81.5343935,53.7614164 81,53.21 Z" id="Shape" fill="#EA495E" fill-rule="nonzero"></path>
        <path d="M33.64,53.21 C33.2800604,52.8498528 33.0815978,52.3591089 33.09,51.85 C33.09,41.51 42.15,32.45 52.49,32.45 C53.5282953,32.4500001 54.3699999,33.2917047 54.3699999,34.33 C54.3699999,35.3682953 53.5282953,36.2099999 52.49,36.21 C44.31,36.21 36.85,43.66 36.85,51.85 C36.8671554,52.6206959 36.4120799,53.3237645 35.7019359,53.6237011 C34.9917918,53.9236378 34.1705075,53.7596528 33.63,53.21 L33.64,53.21 Z" id="Shape" fill="#EA495E" fill-rule="nonzero"></path>
        <path d="M62.77,72.88 C62.4441946,72.5704183 62.3418043,72.0926045 62.5121466,71.6767037 C62.682489,71.2608029 63.0906366,70.9920924 63.54,71 C68.2408965,70.8204806 72.0104806,67.0508965 72.19,62.35 C72.19,61.7480096 72.6780096,61.26 73.28,61.26 C73.8819904,61.26 74.37,61.7480096 74.37,62.35 C74.2333191,68.27868 69.4682793,73.0569194 63.54,73.21 C63.2493875,73.2080806 62.9718123,73.0891199 62.77,72.88 Z" id="Shape" fill="#EA495E" fill-rule="nonzero"></path>
        <path d="M46.23,69.95 C44.1976097,67.9469594 43.037007,65.2233161 43,62.37 C43,61.7680096 43.4880096,61.28 44.09,61.28 C44.6919904,61.28 45.18,61.7680096 45.18,62.37 C45.3402757,67.0682281 49.1117719,70.8397243 53.81,71 C54.4119904,71 54.9,71.4880096 54.9,72.09 C54.9,72.6919904 54.4119904,73.18 53.81,73.18 C50.9566839,73.142993 48.2330406,71.9823903 46.23,69.95 Z" id="Shape" fill="#EA495E" fill-rule="nonzero"></path>
        <path d="M62.77,44 C62.4588908,43.6882888 62.3659262,43.2199872 62.5343787,42.8130761 C62.7028311,42.4061651 63.0995997,42.1406024 63.54,42.14 C69.4721857,42.2878385 74.2430966,47.0675518 74.38,53 C74.38,53.6019904 73.8919904,54.09 73.29,54.09 C72.6880096,54.09 72.2,53.6019904 72.2,53 C72.0543118,48.2788766 68.2611234,44.4856882 63.54,44.34 C63.2479139,44.3354665 62.970122,44.2128052 62.77,44 Z" id="Shape" fill="#EA495E" fill-rule="nonzero"></path>
        <path d="M43.29,53.75 C43.1003987,53.5466478 42.9965248,53.2780085 43,53 C43.1362225,47.0788439 47.8895356,42.3035451 53.81,42.14 C54.4119904,42.14 54.9,42.6280096 54.9,43.23 C54.9,43.8319904 54.4119904,44.32 53.81,44.32 C49.0940854,44.4954109 45.3145318,48.2836933 45.15,53 C45.1493976,53.4404003 44.8838349,53.8371689 44.4769239,54.0056213 C44.0700128,54.1740738 43.6017112,54.0811092 43.29,53.77 L43.29,53.75 Z" id="Shape" fill="#EA495E" fill-rule="nonzero"></path>
    </g>
</svg>