<svg xmlns="http://www.w3.org/2000/svg" viewBox="0 0 179.37 194.48"><defs><style>.cls-1{fill:#488590;}</style></defs><title>logo-electron</title><g id="Layer_2" data-name="Layer 2"><g id="Layer_1-2" data-name="Layer 1"><path class="cls-1" d="M63.31,41.94C37.91,37.25,17.85,42.2,9.77,56c-6,10.29-4.3,24.1,4.17,38.69a2.45,2.45,0,0,0,3.52.91,2.45,2.45,0,0,0,.91-3.52c-7.56-13.16-9-25-4.17-33.48C20.84,47.15,38.82,42.72,62.26,47a2.54,2.54,0,0,0,3-2.08A2.46,2.46,0,0,0,63.31,41.94Zm-36.08,70.6A160.16,160.16,0,0,0,66,143.15c36.86,21.23,76.07,27,95.48,13.81a2.62,2.62,0,0,0-3-4.3c-17.32,11.85-54.58,6.38-89.88-13.94C53.93,130.26,40.9,120,31,109a2.58,2.58,0,0,0-3.78,3.52Z"/><path class="cls-1" d="M155.27,109.42c16.67-19.67,22.4-39.47,14.46-53.28-5.86-10.16-18.37-15.5-34.78-15.76a2.61,2.61,0,0,0,0,5.21c14.85.13,25.53,4.82,30.35,13.16,6.64,11.46,1.43,29.18-13.94,47.28a2.59,2.59,0,1,0,3.91,3.39ZM112.54,42.72A164.5,164.5,0,0,0,66.17,61.09C28,83.11,3.26,115.54,6.64,139a2.73,2.73,0,0,0,3,2.21,2.73,2.73,0,0,0,2.21-3C8.73,117.36,32.3,86.75,68.78,65.65c15-8.6,30.48-14.72,44.94-17.85a2.5,2.5,0,0,0,2-3.13A2.76,2.76,0,0,0,112.54,42.72Z"/><path class="cls-1" d="M50.93,155.27c8.73,24.23,22.93,39.21,38.95,39.21,11.72,0,22.4-7.95,30.87-22a2.57,2.57,0,1,0-4.43-2.61c-7.56,12.64-16.8,19.41-26.44,19.41-13.29,0-25.92-13.29-34-35.82a2.66,2.66,0,0,0-3.39-1.56A2.6,2.6,0,0,0,50.93,155.27Zm79.46-4.69c4.56-14.33,6.9-31,6.9-48.33,0-43.12-15.11-80.37-36.6-89.88a2.57,2.57,0,0,0-2.08,4.69c19.15,8.47,33.48,43.77,33.48,85.19A160.29,160.29,0,0,1,125.44,149a2.63,2.63,0,0,0,1.69,3.26A2.76,2.76,0,0,0,130.39,150.58Zm49-2.61a12.5,12.5,0,1,0-12.5,12.5A12.51,12.51,0,0,0,179.37,148Zm-5.21,0a7.29,7.29,0,1,1-7.29-7.29A7.28,7.28,0,0,1,174.16,148ZM12.5,160.48A12.5,12.5,0,1,0,0,148,12.51,12.51,0,0,0,12.5,160.48Zm0-5.21A7.29,7.29,0,1,1,19.8,148,7.28,7.28,0,0,1,12.5,155.27Z"/><path class="cls-1" d="M89.88,25a12.5,12.5,0,1,0-12.5-12.5A12.51,12.51,0,0,0,89.88,25Zm0-5.21a7.29,7.29,0,1,1,7.29-7.29A7.37,7.37,0,0,1,89.88,19.8Zm1.82,91.31a9,9,0,1,1,6.9-10.68A8.94,8.94,0,0,1,91.7,111.11Z"/></g></g></svg>