<svg xmlns="http://www.w3.org/2000/svg" viewBox="0 0 1041.55 415.55"><defs><style>.cls-1{fill:#fff;}.cls-2{fill:#35344a;}</style></defs><title>text-whatif</title><g id="Layer_2" data-name="Layer 2"><g id="Layer_1-2" data-name="Layer 1"><polygon class="cls-1" points="1041.55 214.66 853.58 214.66 853.58 116.07 704.92 116.07 704.92 0 406.71 0 406.71 36.18 87.81 36.18 87.81 140.37 0 140.37 0 256.39 236.42 256.39 236.42 280.69 247.24 280.69 247.24 363.87 306.52 363.87 306.52 415.55 586.65 415.55 586.65 379.27 1041.55 379.27 1041.55 214.66"/><polygon class="cls-2" points="186.63 111.05 176.44 86.98 185.73 64.27 180.71 64.27 173.14 83.16 165.64 64.27 160.69 64.27 169.99 86.98 159.87 111.05 140.53 63.89 134.91 63.89 157.4 117.12 161.97 117.12 173.21 90.8 184.38 117.12 189.03 117.12 211.6 63.89 205.9 63.89 186.63 111.05"/><path class="cls-2" d="M250.88,117.12V94.25a32.38,32.38,0,0,0-.67-6.86A15.1,15.1,0,0,0,248,82.07a10.56,10.56,0,0,0-3.82-3.45,12,12,0,0,0-5.7-1.24,16.66,16.66,0,0,0-8.92,2.55,17.71,17.71,0,0,0-6.45,7V62.39H218v54.73h5.1V93.2a14.89,14.89,0,0,1,2.06-4.42,16.21,16.21,0,0,1,3.26-3.52,16,16,0,0,1,4-2.36,11.45,11.45,0,0,1,4.31-.86,7.64,7.64,0,0,1,6.71,3.3q2.29,3.3,2.29,10v21.82Z"/><path class="cls-2" d="M262.31,114.34a12.94,12.94,0,0,0,4.12,2.59,13.81,13.81,0,0,0,5.14.94,20.89,20.89,0,0,0,8.81-1.87,17.7,17.7,0,0,0,6.78-5.4l.15,3.07a3.66,3.66,0,0,0,1.16,2.7,4.38,4.38,0,0,0,3,1,12.09,12.09,0,0,0,1.95-.22v-4.5q-1.87,0-1.87-2.1V92.9q0-7.27-4.2-11.4t-11.54-4.12q-7.12,0-14.69,5.1l1.8,3.37a29.66,29.66,0,0,1,6.37-3.45,17.22,17.22,0,0,1,6.15-1.2,10.71,10.71,0,0,1,8.1,3,11.34,11.34,0,0,1,2.92,8.21V96a26.46,26.46,0,0,0-5.47-1.5,36.07,36.07,0,0,0-6.07-.52,23.87,23.87,0,0,0-6.6.86,16.51,16.51,0,0,0-5.17,2.44A11.43,11.43,0,0,0,259.8,101a9.62,9.62,0,0,0-1.2,4.72,11.65,11.65,0,0,0,3.71,8.62Zm4.54-14.92a15.54,15.54,0,0,1,8.77-2.25,29.61,29.61,0,0,1,5.58.53,31.37,31.37,0,0,1,5.29,1.5v6.37a3.73,3.73,0,0,1-.34,1.46,4.68,4.68,0,0,1-1,1.46,12,12,0,0,1-5.06,4,17.62,17.62,0,0,1-7.31,1.5,10,10,0,0,1-3.67-.67,9.11,9.11,0,0,1-3-1.84,8.53,8.53,0,0,1-1.95-2.74,8.07,8.07,0,0,1-.71-3.37A6.84,6.84,0,0,1,266.84,99.43Z"/><path class="cls-2" d="M304,110.07a7.62,7.62,0,0,0,.67,3.3,6.82,6.82,0,0,0,1.8,2.36,7.33,7.33,0,0,0,2.62,1.39,10.89,10.89,0,0,0,3.15.45,14.64,14.64,0,0,0,3-.3,23.11,23.11,0,0,0,2.55-.67q1.12-.37,2-.75c.57-.25,1-.45,1.31-.6l-1.35-4.12a16.86,16.86,0,0,1-2.1,1,9.56,9.56,0,0,1-3.82.71,5.26,5.26,0,0,1-3.19-1,4,4,0,0,1-1.54-3.19V82.11h9v-4h-9V64.87H304V78.06h-5.4v4H304Z"/><rect class="cls-2" x="346.53" y="62.39" width="5.1" height="7.5"/><rect class="cls-2" x="346.53" y="78.06" width="5.1" height="39.06"/><path class="cls-2" d="M364.75,117.12h5.1v-35h10.8v-4h-10.8v-1.2q0-5.25,1.87-8a6.19,6.19,0,0,1,5.47-2.77,11,11,0,0,1,3.11.45,7.62,7.62,0,0,1,2.59,1.27l1.57-3.67a13,13,0,0,0-3.75-1.8,15.08,15.08,0,0,0-4.5-.67,9.94,9.94,0,0,0-8.4,4.08q-3.07,4.09-3.07,11.28v1h-5.4v4h5.4Z"/><path class="cls-2" d="M49.83,218.23a12.25,12.25,0,0,1-2.7,2.14,14.25,14.25,0,0,1-3.41,1.46,13.43,13.43,0,0,1-3.71.53,12.6,12.6,0,0,1-5.51-1.24A14.62,14.62,0,0,1,30,217.74a15.87,15.87,0,0,1-3.07-5.06,18.06,18.06,0,0,1,0-12.44,15,15,0,0,1,3-4.91,14.25,14.25,0,0,1,4.5-3.26,13.59,13.59,0,0,1,12.14.49,11.89,11.89,0,0,1,4.61,4.68l4.95-1.57a16.15,16.15,0,0,0-6.22-6.78,18.23,18.23,0,0,0-9.67-2.51,19.62,19.62,0,0,0-7.95,1.57A18.75,18.75,0,0,0,26,192.25a19.47,19.47,0,0,0-4,6.41,21.37,21.37,0,0,0-1.42,7.8,21.09,21.09,0,0,0,1.46,7.87,20.51,20.51,0,0,0,4.09,6.48,19,19,0,0,0,14.09,6,20.11,20.11,0,0,0,5.36-.71,18.16,18.16,0,0,0,4.72-2A16.52,16.52,0,0,0,54,221a12.77,12.77,0,0,0,2.4-3.86l-5-1.5A6.94,6.94,0,0,1,49.83,218.23Z"/><path class="cls-2" d="M94.63,192.44A19.59,19.59,0,0,0,88.48,188a18.25,18.25,0,0,0-7.76-1.65A18,18,0,0,0,73,188a19.69,19.69,0,0,0-6.11,4.42,20.44,20.44,0,0,0-4,6.45,20.89,20.89,0,0,0-1.46,7.8,21.16,21.16,0,0,0,1.42,7.72,19.86,19.86,0,0,0,4,6.45,19.14,19.14,0,0,0,6.11,4.39,18.53,18.53,0,0,0,7.8,1.61,18.78,18.78,0,0,0,7.83-1.61,19,19,0,0,0,6.15-4.39,19.89,19.89,0,0,0,4-6.45,21.19,21.19,0,0,0,1.42-7.72,20.89,20.89,0,0,0-1.46-7.8A20.44,20.44,0,0,0,94.63,192.44Zm-.79,20.32a16.08,16.08,0,0,1-3.07,5,14.65,14.65,0,0,1-4.54,3.37,12.6,12.6,0,0,1-5.51,1.24,12.92,12.92,0,0,1-5.51-1.2,13.71,13.71,0,0,1-4.5-3.34,16.58,16.58,0,0,1-3-4.95,16.3,16.3,0,0,1-1.12-6.11,16.89,16.89,0,0,1,1.12-6.19,16.45,16.45,0,0,1,3.07-5.06,14.49,14.49,0,0,1,4.5-3.41,12.37,12.37,0,0,1,5.47-1.24,12.62,12.62,0,0,1,5.51,1.24,14.65,14.65,0,0,1,4.54,3.37,16,16,0,0,1,3.07,5,17.26,17.26,0,0,1,0,12.26Z"/><path class="cls-2" d="M141.67,219.51V187h-5.1v24.59a17,17,0,0,1-2.36,4.42,17.59,17.59,0,0,1-3.3,3.37,13.89,13.89,0,0,1-4,2.17,13.48,13.48,0,0,1-4.42.75q-9.07,0-9.07-13.27V187h-5.1V210q0,8.4,3.11,12.63t9.48,4.24a18.48,18.48,0,0,0,9.33-2.51,18.17,18.17,0,0,0,6.93-7.08v4.5a4.53,4.53,0,0,0,1.12,3.22,4.07,4.07,0,0,0,2.92,1.27H142a9.34,9.34,0,0,0,1.46-.15v-4.5Q141.66,221.6,141.67,219.51Z"/><path class="cls-2" d="M165.05,221.68a10.18,10.18,0,0,1-1.95.22,4.48,4.48,0,0,1-3.37-1.24,4.69,4.69,0,0,1-1.2-3.41V171.38h-5.1V219a7.47,7.47,0,0,0,2,5.58,7.57,7.57,0,0,0,5.55,2,20.42,20.42,0,0,0,3.56-.37,16.81,16.81,0,0,0,3.49-1l-.9-4.12A12.91,12.91,0,0,1,165.05,221.68Z"/><path class="cls-2" d="M208.68,219.51V171.38h-5.1v23.84a19.58,19.58,0,0,0-6-6.26,15.28,15.28,0,0,0-8.77-2.59,15.94,15.94,0,0,0-7.16,1.61,17.5,17.5,0,0,0-5.62,4.39,20.92,20.92,0,0,0-3.71,6.48,22.74,22.74,0,0,0-1.35,7.83,21.13,21.13,0,0,0,1.39,7.61,20.49,20.49,0,0,0,3.86,6.41,19.06,19.06,0,0,0,5.92,4.46,16.82,16.82,0,0,0,7.5,1.69,16.53,16.53,0,0,0,8.25-2.25,17.09,17.09,0,0,0,6.3-6.07v3.82a3.58,3.58,0,0,0,1.35,2.81,4.67,4.67,0,0,0,3.15,1.16,9.63,9.63,0,0,0,1.8-.22v-4.5Q208.68,221.6,208.68,219.51Zm-5.1-6.82a8.32,8.32,0,0,1-1.61,3.79,13.82,13.82,0,0,1-3.19,3.07,16.45,16.45,0,0,1-4,2.06,12.14,12.14,0,0,1-4,.75,13.09,13.09,0,0,1-5.73-1.27,14.87,14.87,0,0,1-4.61-3.41,16.38,16.38,0,0,1-4.2-11,18,18,0,0,1,1-5.85,15.88,15.88,0,0,1,2.81-5.06,14.42,14.42,0,0,1,4.39-3.56,12,12,0,0,1,5.7-1.35,12.23,12.23,0,0,1,4.12.75,15.36,15.36,0,0,1,3.94,2.1,17.57,17.57,0,0,1,3.26,3.11,13.43,13.43,0,0,1,2.17,3.79Z"/><path class="cls-2" d="M301.74,317.86l-16.65-39.51h-6l19.58,44.95q-2,4.66-3.06,7.42a31.32,31.32,0,0,1-1.94,4.23,4.58,4.58,0,0,1-1.77,1.9,5.81,5.81,0,0,1-2.46.43q-.6,0-1.25,0t-1.34-.13v5.18q1.12.17,1.9.22t1.64,0a9,9,0,0,0,6-1.85,10.56,10.56,0,0,0,3.15-4.36l23.29-58h-5.61Z"/><path class="cls-2" d="M364.59,284.56a22.51,22.51,0,0,0-7.07-5.09,21,21,0,0,0-8.93-1.9,20.7,20.7,0,0,0-8.89,1.9,22.64,22.64,0,0,0-7,5.09A23.53,23.53,0,0,0,328,292a24,24,0,0,0-1.68,9,24.35,24.35,0,0,0,1.64,8.89,22.86,22.86,0,0,0,4.62,7.42,22,22,0,0,0,7,5,21.32,21.32,0,0,0,9,1.85,21.61,21.61,0,0,0,9-1.85,21.92,21.92,0,0,0,7.07-5,22.89,22.89,0,0,0,4.62-7.42,24.38,24.38,0,0,0,1.64-8.89,24,24,0,0,0-1.68-9A23.53,23.53,0,0,0,364.59,284.56Zm-.91,23.38a18.49,18.49,0,0,1-3.54,5.74,16.85,16.85,0,0,1-5.22,3.88,14.51,14.51,0,0,1-6.34,1.42,14.88,14.88,0,0,1-6.34-1.38,15.78,15.78,0,0,1-5.18-3.84,19.08,19.08,0,0,1-3.49-5.69,18.76,18.76,0,0,1-1.29-7,19.44,19.44,0,0,1,1.29-7.12,18.94,18.94,0,0,1,3.54-5.82,16.7,16.7,0,0,1,5.18-3.93,14.24,14.24,0,0,1,6.3-1.42,14.52,14.52,0,0,1,6.34,1.42,16.85,16.85,0,0,1,5.22,3.88,18.4,18.4,0,0,1,3.54,5.78,19.87,19.87,0,0,1,0,14.11Z"/><path class="cls-2" d="M380.33,278.34v26.4q0,9.66,3.58,14.54t10.91,4.87a21.26,21.26,0,0,0,10.74-2.89,20.93,20.93,0,0,0,8-8.15v5.18a5.21,5.21,0,0,0,1.29,3.71,4.69,4.69,0,0,0,3.36,1.47h.91a10.79,10.79,0,0,0,1.68-.17v-5.18q-2.07,0-2.07-2.42V278.34h-5.87v28.3a19.56,19.56,0,0,1-2.72,5.09,20.23,20.23,0,0,1-3.8,3.88,16,16,0,0,1-4.62,2.5,15.49,15.49,0,0,1-5.09.86q-10.44,0-10.44-15.27V278.34Z"/><path class="cls-2" d="M454.44,278.17a6,6,0,0,0-1.12-.09,15.6,15.6,0,0,0-9.06,2.93,20.44,20.44,0,0,0-6.73,8.11V278.34H432v44.95h5.87v-28a16.53,16.53,0,0,1,6.21-8.54,18.47,18.47,0,0,1,10.35-3.28Z"/><path class="cls-2" d="M363.38,350a22.51,22.51,0,0,0-7.07-5.09,21,21,0,0,0-8.93-1.9,20.7,20.7,0,0,0-8.89,1.9,22.64,22.64,0,0,0-7,5.09,23.53,23.53,0,0,0-4.66,7.42,24,24,0,0,0-1.68,9,24.35,24.35,0,0,0,1.64,8.89,22.86,22.86,0,0,0,4.62,7.42,22,22,0,0,0,7,5,21.32,21.32,0,0,0,9,1.85,21.61,21.61,0,0,0,9-1.85,21.92,21.92,0,0,0,7.07-5,22.89,22.89,0,0,0,4.62-7.42,24.38,24.38,0,0,0,1.64-8.89,24,24,0,0,0-1.68-9A23.53,23.53,0,0,0,363.38,350Zm-.91,23.38a18.49,18.49,0,0,1-3.54,5.74,16.85,16.85,0,0,1-5.22,3.88,14.51,14.51,0,0,1-6.34,1.42A14.88,14.88,0,0,1,341,383a15.78,15.78,0,0,1-5.18-3.84,19.08,19.08,0,0,1-3.49-5.69,18.76,18.76,0,0,1-1.29-7,19.44,19.44,0,0,1,1.29-7.12,18.94,18.94,0,0,1,3.54-5.82,16.7,16.7,0,0,1,5.18-3.93,14.24,14.24,0,0,1,6.3-1.42,14.52,14.52,0,0,1,6.34,1.42,16.85,16.85,0,0,1,5.22,3.88,18.4,18.4,0,0,1,3.54,5.78,19.87,19.87,0,0,1,0,14.11Z"/><polygon class="cls-2" points="418.2 382.65 409.66 362.12 417.34 343.83 412.34 343.83 406.47 358.49 400.6 343.83 395.69 343.83 403.37 362.12 394.82 382.65 378.43 343.74 372.74 343.74 392.06 388.69 396.89 388.69 406.47 365.74 416.13 388.69 420.96 388.69 440.29 343.74 434.51 343.74 418.2 382.65"/><path class="cls-2" d="M482.91,348.23a10.74,10.74,0,0,0-4.14-3.88,13.24,13.24,0,0,0-6.3-1.38,21.65,21.65,0,0,0-11.17,3,21.11,21.11,0,0,0-7.89,7.94V343.74h-5.35v44.95h5.87V361.17a16.06,16.06,0,0,1,2.5-5.13,20.5,20.5,0,0,1,3.93-4.1,17.48,17.48,0,0,1,4.79-2.67,15,15,0,0,1,5.18-.95,8.11,8.11,0,0,1,7.29,3.62q2.37,3.62,2.37,11.65v25.11h5.87V362.38a43.05,43.05,0,0,0-.69-8A17.91,17.91,0,0,0,482.91,348.23Z"/><path class="cls-2" d="M549.23,323.34V297.18q0-10.79-6.23-16.92t-17.14-6.12q-10.57,0-21.81,7.57l2.67,5a44,44,0,0,1,9.46-5.12,25.55,25.55,0,0,1,9.13-1.78q7.68,0,12,4.51t4.34,12.19v5.23a39.27,39.27,0,0,0-8.12-2.23,53.69,53.69,0,0,0-9-.78,35.38,35.38,0,0,0-9.79,1.28,24.51,24.51,0,0,0-7.68,3.62,17,17,0,0,0-5,5.56,14.28,14.28,0,0,0-1.78,7,17.29,17.29,0,0,0,5.51,12.8,19.21,19.21,0,0,0,6.12,3.84,20.49,20.49,0,0,0,7.62,1.39,31,31,0,0,0,13.08-2.78,26.3,26.3,0,0,0,10.07-8l.22,4.56a5.43,5.43,0,0,0,1.72,4,6.51,6.51,0,0,0,4.51,1.45,18,18,0,0,0,2.89-.33v-6.68Q549.23,326.45,549.23,323.34ZM541.66,316a5.53,5.53,0,0,1-.5,2.17,6.94,6.94,0,0,1-1.5,2.17,17.72,17.72,0,0,1-7.51,5.9,26.14,26.14,0,0,1-10.85,2.23,14.82,14.82,0,0,1-5.45-1,13.52,13.52,0,0,1-4.4-2.73,12.68,12.68,0,0,1-2.89-4.06,12,12,0,0,1-1.06-5q0-5.45,5-8.79t13-3.34a44.08,44.08,0,0,1,8.29.78,46.58,46.58,0,0,1,7.85,2.23Z"/><path class="cls-2" d="M601.7,306.31a30.77,30.77,0,0,0-7.07-3.12q-4.23-1.34-9.79-2.67-3.9-.89-6.62-1.73a20.7,20.7,0,0,1-4.51-1.89,6.63,6.63,0,0,1-2.56-2.5,8,8,0,0,1-.78-3.78,10,10,0,0,1,1.11-4.84,9.59,9.59,0,0,1,3.06-3.39,13.39,13.39,0,0,1,4.51-1.95,24,24,0,0,1,5.56-.61,28.1,28.1,0,0,1,9.63,1.67,20.37,20.37,0,0,1,7.85,5l3.67-4.45a24,24,0,0,0-8.79-5.73,32.53,32.53,0,0,0-12.13-2.17,30.88,30.88,0,0,0-8.4,1.11,21.21,21.21,0,0,0-6.9,3.28,15.64,15.64,0,0,0-4.67,5.51,16.48,16.48,0,0,0-1.72,7.68,12.5,12.5,0,0,0,1.17,5.73,10,10,0,0,0,3.56,3.84,26.5,26.5,0,0,0,6.07,2.78q3.67,1.23,8.68,2.45,4.34,1,7.62,1.95a25.7,25.7,0,0,1,5.45,2.17,9.67,9.67,0,0,1,3.28,2.84,7,7,0,0,1,1.11,4.06,9.18,9.18,0,0,1-4.17,8.07q-4.17,2.84-11.18,2.84a29.21,29.21,0,0,1-10.85-2,37.69,37.69,0,0,1-10-6l-3.45,5.12A31.78,31.78,0,0,0,571.6,332a40.35,40.35,0,0,0,13.24,2.23q10.35,0,16.47-4.67a15.12,15.12,0,0,0,6.12-12.69,12.51,12.51,0,0,0-1.45-6.23A12.29,12.29,0,0,0,601.7,306.31Z"/><path class="cls-2" d="M655.9,306.31a30.77,30.77,0,0,0-7.07-3.12q-4.23-1.34-9.79-2.67-3.9-.89-6.62-1.73a20.7,20.7,0,0,1-4.51-1.89,6.63,6.63,0,0,1-2.56-2.5,8,8,0,0,1-.78-3.78,10,10,0,0,1,1.11-4.84,9.59,9.59,0,0,1,3.06-3.39,13.39,13.39,0,0,1,4.51-1.95,24,24,0,0,1,5.56-.61,28.1,28.1,0,0,1,9.63,1.67,20.37,20.37,0,0,1,7.85,5L660,282a24,24,0,0,0-8.79-5.73A32.53,32.53,0,0,0,639,274.15a30.88,30.88,0,0,0-8.4,1.11,21.21,21.21,0,0,0-6.9,3.28,15.64,15.64,0,0,0-4.67,5.51,16.48,16.48,0,0,0-1.72,7.68,12.5,12.5,0,0,0,1.17,5.73,10,10,0,0,0,3.56,3.84,26.5,26.5,0,0,0,6.07,2.78q3.67,1.23,8.68,2.45,4.34,1,7.62,1.95a25.7,25.7,0,0,1,5.45,2.17,9.67,9.67,0,0,1,3.28,2.84,7,7,0,0,1,1.11,4.06,9.18,9.18,0,0,1-4.17,8.07q-4.17,2.84-11.18,2.84a29.21,29.21,0,0,1-10.85-2,37.69,37.69,0,0,1-10-6l-3.45,5.12A31.78,31.78,0,0,0,625.8,332,40.35,40.35,0,0,0,639,334.24q10.35,0,16.47-4.67a15.12,15.12,0,0,0,6.12-12.69,12.51,12.51,0,0,0-1.45-6.23A12.29,12.29,0,0,0,655.9,306.31Z"/><rect class="cls-2" x="673.98" y="251.89" width="7.57" height="11.13"/><rect class="cls-2" x="673.98" y="275.15" width="7.57" height="57.98"/><path class="cls-2" d="M734.36,306.31a30.77,30.77,0,0,0-7.07-3.12q-4.23-1.34-9.79-2.67-3.9-.89-6.62-1.73a20.7,20.7,0,0,1-4.51-1.89,6.63,6.63,0,0,1-2.56-2.5,8,8,0,0,1-.78-3.78,10,10,0,0,1,1.11-4.84,9.59,9.59,0,0,1,3.06-3.39,13.39,13.39,0,0,1,4.51-1.95,24,24,0,0,1,5.56-.61,28.1,28.1,0,0,1,9.63,1.67,20.37,20.37,0,0,1,7.85,5l3.67-4.45a24,24,0,0,0-8.79-5.73,32.53,32.53,0,0,0-12.13-2.17,30.88,30.88,0,0,0-8.4,1.11,21.21,21.21,0,0,0-6.9,3.28,15.64,15.64,0,0,0-4.67,5.51,16.48,16.48,0,0,0-1.72,7.68,12.5,12.5,0,0,0,1.17,5.73,10,10,0,0,0,3.56,3.84,26.5,26.5,0,0,0,6.07,2.78q3.67,1.23,8.68,2.45,4.34,1,7.62,1.95a25.7,25.7,0,0,1,5.45,2.17,9.67,9.67,0,0,1,3.28,2.84,7,7,0,0,1,1.11,4.06,9.18,9.18,0,0,1-4.17,8.07q-4.17,2.84-11.18,2.84a29.21,29.21,0,0,1-10.85-2,37.69,37.69,0,0,1-10-6l-3.45,5.12A31.78,31.78,0,0,0,704.25,332a40.35,40.35,0,0,0,13.24,2.23q10.35,0,16.47-4.67a15.12,15.12,0,0,0,6.12-12.69,12.51,12.51,0,0,0-1.45-6.23A12.29,12.29,0,0,0,734.36,306.31Z"/><path class="cls-2" d="M775.14,325.73a14.2,14.2,0,0,1-5.68,1.06,7.82,7.82,0,0,1-4.73-1.5,6,6,0,0,1-2.28-4.73v-39.4h13.35v-6H762.46V255.56h-7.57v19.59h-8v6h8v41.51a11.31,11.31,0,0,0,1,4.9,10.12,10.12,0,0,0,2.67,3.51,10.87,10.87,0,0,0,3.9,2.06,16.17,16.17,0,0,0,4.67.67,21.63,21.63,0,0,0,4.45-.45,34.13,34.13,0,0,0,3.78-1q1.67-.56,2.95-1.11t1.95-.89l-2-6.12A24.79,24.79,0,0,1,775.14,325.73Z"/><path class="cls-2" d="M834,323.34V297.18q0-10.79-6.23-16.92t-17.14-6.12q-10.57,0-21.81,7.57l2.67,5A44,44,0,0,1,801,281.6a25.55,25.55,0,0,1,9.13-1.78q7.68,0,12,4.51t4.34,12.19v5.23a39.27,39.27,0,0,0-8.12-2.23,53.69,53.69,0,0,0-9-.78,35.38,35.38,0,0,0-9.79,1.28,24.51,24.51,0,0,0-7.68,3.62,17,17,0,0,0-5,5.56,14.28,14.28,0,0,0-1.78,7,17.29,17.29,0,0,0,5.51,12.8,19.21,19.21,0,0,0,6.12,3.84,20.49,20.49,0,0,0,7.62,1.39,31,31,0,0,0,13.08-2.78,26.3,26.3,0,0,0,10.07-8l.22,4.56a5.43,5.43,0,0,0,1.72,4,6.51,6.51,0,0,0,4.51,1.45,18,18,0,0,0,2.89-.33v-6.68Q834,326.45,834,323.34ZM826.45,316a5.53,5.53,0,0,1-.5,2.17,6.94,6.94,0,0,1-1.5,2.17,17.72,17.72,0,0,1-7.51,5.9,26.14,26.14,0,0,1-10.85,2.23,14.82,14.82,0,0,1-5.45-1,13.52,13.52,0,0,1-4.4-2.73,12.68,12.68,0,0,1-2.89-4.06,12,12,0,0,1-1.06-5q0-5.45,5-8.79t13-3.34a44.08,44.08,0,0,1,8.29.78,46.58,46.58,0,0,1,7.85,2.23Z"/><path class="cls-2" d="M895.33,280.93a13.86,13.86,0,0,0-5.34-5,17.08,17.08,0,0,0-8.12-1.78,27.92,27.92,0,0,0-14.41,3.9,27.24,27.24,0,0,0-10.18,10.24V275.15h-6.9v58h7.57v-35.5a20.73,20.73,0,0,1,3.23-6.62,26.47,26.47,0,0,1,5.06-5.29,22.56,22.56,0,0,1,6.18-3.45,19.3,19.3,0,0,1,6.68-1.22q6.34,0,9.4,4.67t3.06,15v32.38h7.57V299.19a55.5,55.5,0,0,0-.89-10.35A23.1,23.1,0,0,0,895.33,280.93Z"/><path class="cls-2" d="M937.4,325.73a14.2,14.2,0,0,1-5.68,1.06,7.82,7.82,0,0,1-4.73-1.5,6,6,0,0,1-2.28-4.73v-39.4h13.35v-6H924.72V255.56h-7.57v19.59h-8v6h8v41.51a11.31,11.31,0,0,0,1,4.9,10.12,10.12,0,0,0,2.67,3.51,10.87,10.87,0,0,0,3.9,2.06,16.17,16.17,0,0,0,4.67.67,21.63,21.63,0,0,0,4.45-.45,34.13,34.13,0,0,0,3.78-1q1.67-.56,2.95-1.11t1.95-.89l-2-6.12A24.79,24.79,0,0,1,937.4,325.73Z"/><rect class="cls-2" x="960.88" y="321.22" width="6.57" height="11.91"/><path class="cls-2" d="M990.54,265a19.51,19.51,0,0,0-4.9-6.68,20,20,0,0,0-7-4,25.57,25.57,0,0,0-8-1.28,27.46,27.46,0,0,0-7.18.95,25.7,25.7,0,0,0-6.57,2.78,24.58,24.58,0,0,0-5.51,4.51,23,23,0,0,0-4,6.12l5.23,3.34a21.9,21.9,0,0,1,7.18-8.07,18.39,18.39,0,0,1,10.74-3.28,18,18,0,0,1,5.62.89,13.67,13.67,0,0,1,8.24,7.23,14.56,14.56,0,0,1,1.28,6.34,13.57,13.57,0,0,1-1.61,6.9,18.41,18.41,0,0,1-4,4.79,26.4,26.4,0,0,1-5,3.39q-2.67,1.39-4.9,2.73a18.38,18.38,0,0,0-7.18,7.23q-2.28,4.34-2.28,11.69h6.45a22.72,22.72,0,0,1,.83-6.68,13.9,13.9,0,0,1,2.28-4.51,13.64,13.64,0,0,1,3.23-3q1.78-1.17,3.78-2.28,2.78-1.56,5.51-3.17a22.27,22.27,0,0,0,4.84-3.84,17.27,17.27,0,0,0,3.39-5.29,19.52,19.52,0,0,0,1.28-7.51A22.24,22.24,0,0,0,990.54,265Z"/><polygon class="cls-2" points="455.84 117.12 463.94 117.12 463.94 86.57 495.76 34.96 486.96 34.96 459.89 79.16 433.04 34.96 424.13 34.96 455.84 86.34 455.84 117.12"/><path class="cls-2" d="M507.56,104.79a39,39,0,0,0,12.21,9.37,36.24,36.24,0,0,0,31,.12,39.18,39.18,0,0,0,12.21-9.14A43.24,43.24,0,0,0,571,91.89a42.7,42.7,0,0,0,3-15.74,43.31,43.31,0,0,0-2.78-15.21,44.11,44.11,0,0,0-7.81-13.36A39.36,39.36,0,0,0,551.24,38a33.88,33.88,0,0,0-15.68-3.65,34.63,34.63,0,0,0-15.27,3.41A39.44,39.44,0,0,0,508,47a43.41,43.41,0,0,0-8.16,13.31,42.72,42.72,0,0,0-3,15.74,44.09,44.09,0,0,0,2.78,15.39A42.55,42.55,0,0,0,507.56,104.79Zm-.4-41.25a36.35,36.35,0,0,1,6.07-11,30,30,0,0,1,9.6-7.81,26.9,26.9,0,0,1,12.61-3,26.6,26.6,0,0,1,12.26,2.83,31.14,31.14,0,0,1,9.6,7.58,35.32,35.32,0,0,1,6.31,10.93,37.78,37.78,0,0,1,.12,25.4,36.38,36.38,0,0,1-6.07,11,30.76,30.76,0,0,1-9.6,7.87,26.47,26.47,0,0,1-12.61,3,26.82,26.82,0,0,1-12.38-2.83,30.69,30.69,0,0,1-9.6-7.64,35,35,0,0,1-6.25-11A38.24,38.24,0,0,1,505,76,37.63,37.63,0,0,1,507.15,63.54Z"/><path class="cls-2" d="M595.61,104.85a29.9,29.9,0,0,0,10.7,9.31q6.65,3.53,16.37,3.53,9.49,0,16.08-3.36a29.47,29.47,0,0,0,10.7-9,37.56,37.56,0,0,0,6-13.13,65.47,65.47,0,0,0,1.85-15.79V35h-8.1V76.39A63.54,63.54,0,0,1,648,88.77a31.47,31.47,0,0,1-4.28,10.93,23.35,23.35,0,0,1-8.22,7.75q-5.15,3-12.9,3a25.46,25.46,0,0,1-12.73-2.89,23.12,23.12,0,0,1-8.16-7.64A31.66,31.66,0,0,1,597.35,89a61.81,61.81,0,0,1-1.27-12.61V35h-8V76.39a66.68,66.68,0,0,0,1.74,15.27A37.76,37.76,0,0,0,595.61,104.85Z"/><path class="cls-2" d="M291.09,206.89a24.43,24.43,0,0,0,7.46-5.79,26.45,26.45,0,0,0,4.86-8.27,27.92,27.92,0,0,0,1.74-9.78,25.06,25.06,0,0,0-1.85-9.37,28,28,0,0,0-5.09-8.27,25.8,25.8,0,0,0-7.69-5.9,21.33,21.33,0,0,0-9.78-2.26h-34V239.4h8.1V209.09h26.61A21.07,21.07,0,0,0,291.09,206.89Zm-36.27-5V164.42h25.57a14.88,14.88,0,0,1,6.42,1.45,16.43,16.43,0,0,1,5.32,4A20,20,0,0,1,297,183.05a22,22,0,0,1-1.16,7.12,19.61,19.61,0,0,1-3.24,6,15.9,15.9,0,0,1-5,4.17,13.75,13.75,0,0,1-6.54,1.56Z"/><path class="cls-2" d="M318.68,239.4h8.1V209.09h24.3l19.32,30.32h9.14l-20.13-31.7a20.24,20.24,0,0,0,7.52-3.07,22.42,22.42,0,0,0,5.73-5.55,26.69,26.69,0,0,0,3.7-7.41,27.83,27.83,0,0,0,1.33-8.62,25.77,25.77,0,0,0-1.79-9.37,27.11,27.11,0,0,0-5-8.27,25.8,25.8,0,0,0-7.69-5.9,21.33,21.33,0,0,0-9.78-2.26H318.68Zm8.1-75h26.15a14.42,14.42,0,0,1,6.42,1.5,17.18,17.18,0,0,1,5.32,4,19.69,19.69,0,0,1,3.59,6,19.46,19.46,0,0,1,1.33,7.12,21.51,21.51,0,0,1-1.16,7.06,20.54,20.54,0,0,1-3.24,6,15.58,15.58,0,0,1-5,4.22,13.75,13.75,0,0,1-6.54,1.56H326.78Z"/><path class="cls-2" d="M399.45,227.08a39,39,0,0,0,12.21,9.37,36.24,36.24,0,0,0,31,.12,39.18,39.18,0,0,0,12.21-9.14,43.24,43.24,0,0,0,8.1-13.25,42.7,42.7,0,0,0,3-15.74,43.31,43.31,0,0,0-2.78-15.21,44.11,44.11,0,0,0-7.81-13.36,39.36,39.36,0,0,0-12.15-9.55,33.88,33.88,0,0,0-15.68-3.65,34.63,34.63,0,0,0-15.27,3.41,39.44,39.44,0,0,0-12.27,9.2,43.41,43.41,0,0,0-8.16,13.31,42.72,42.72,0,0,0-3,15.74,44.09,44.09,0,0,0,2.78,15.39A42.55,42.55,0,0,0,399.45,227.08Zm-.4-41.25a36.35,36.35,0,0,1,6.07-11,30,30,0,0,1,9.6-7.81,26.9,26.9,0,0,1,12.61-3,26.6,26.6,0,0,1,12.26,2.83,31.14,31.14,0,0,1,9.6,7.58,35.32,35.32,0,0,1,6.31,10.93,37.78,37.78,0,0,1,.12,25.4,36.38,36.38,0,0,1-6.07,11,30.76,30.76,0,0,1-9.6,7.87,26.47,26.47,0,0,1-12.61,3A26.82,26.82,0,0,1,415,229.86a30.69,30.69,0,0,1-9.6-7.64,35,35,0,0,1-6.25-11,38.24,38.24,0,0,1-2.2-12.9A37.63,37.63,0,0,1,399,185.83Z"/><path class="cls-2" d="M540.5,227.37v12h6.83V199H522.21v6.25H540.5v13.65a40,40,0,0,1-12.32,10.47,29.13,29.13,0,0,1-13.48,3.3,27.14,27.14,0,0,1-12.21-2.78,31.88,31.88,0,0,1-9.78-7.46,34.93,34.93,0,0,1-6.54-10.93,36.84,36.84,0,0,1-2.37-13.19,39.83,39.83,0,0,1,2.08-12.79,35.2,35.2,0,0,1,6-11,29.68,29.68,0,0,1,9.37-7.69A26,26,0,0,1,513.54,164a29.84,29.84,0,0,1,14.69,3.59,26.6,26.6,0,0,1,10.53,11.22L545,174.6a35.3,35.3,0,0,0-4.8-7.23,28.21,28.21,0,0,0-6.71-5.67,33.47,33.47,0,0,0-8.85-3.7,42.57,42.57,0,0,0-11-1.33,33.9,33.9,0,0,0-15.16,3.41,38.9,38.9,0,0,0-12,9.14,42,42,0,0,0-7.93,13.25,44.24,44.24,0,0,0-2.83,15.74,42.06,42.06,0,0,0,2.89,15.33,44.74,44.74,0,0,0,8,13.36,40.42,40.42,0,0,0,12.15,9.49A33.11,33.11,0,0,0,514.11,240Q529,240,540.5,227.37Z"/><path class="cls-2" d="M618,199.08a26.69,26.69,0,0,0,3.7-7.41,27.83,27.83,0,0,0,1.33-8.62,25.77,25.77,0,0,0-1.79-9.37,27.11,27.11,0,0,0-5-8.27,25.8,25.8,0,0,0-7.69-5.9,21.33,21.33,0,0,0-9.78-2.26H564V239.4h8.1V209.09h24.3L615.7,239.4h9.14l-20.13-31.7a20.24,20.24,0,0,0,7.52-3.07A22.42,22.42,0,0,0,618,199.08Zm-12.5,1.27a13.75,13.75,0,0,1-6.54,1.56H572.08V164.42h26.15a14.42,14.42,0,0,1,6.42,1.5,17.18,17.18,0,0,1,5.32,4,19.69,19.69,0,0,1,3.59,6,19.46,19.46,0,0,1,1.33,7.12,21.51,21.51,0,0,1-1.16,7.06,20.54,20.54,0,0,1-3.24,6A15.58,15.58,0,0,1,605.46,200.35Z"/><path class="cls-2" d="M704.68,239.4l-34.13-82.15h-6.83L629.36,239.4H638l10.53-25.69h36.91l10.65,25.69ZM650.3,207.35l16.78-40.61,16.55,40.61Z"/><polygon class="cls-2" points="724.59 171.94 754.55 224.13 759.3 224.13 789.27 171.94 789.27 239.4 797.37 239.4 797.37 157.25 789.15 157.25 756.87 213.48 724.82 157.25 716.49 157.25 716.49 239.4 724.59 239.4 724.59 171.94"/></g></g></svg>